<?xml version="1.0" encoding="UTF-8"?>
<svg id="Layer_2" data-name="Layer 2" xmlns="http://www.w3.org/2000/svg" viewBox="0 0 73.91 17.46">
  <defs>
    <style>
      .cls-1 {
        isolation: isolate;
      }

      .cls-2 {
        fill: #474237;
      }
    </style>
  </defs>
  <g id="Layer_1-2" data-name="Layer 1">
    <g id="Espasyo" class="cls-1">
      <g class="cls-1">
        <path class="cls-2" d="m2.54,2.02v3.29h4.5v1.94H2.54v3.42h5.04v2.03H0V0h7.58v2.02H2.54Z"/>
        <path class="cls-2" d="m15.8,3.53c.73.61,1.19,1.43,1.37,2.45h-2.38c-.1-.48-.31-.86-.65-1.15-.34-.29-.77-.43-1.31-.43-.43,0-.77.1-1.01.31s-.36.48-.36.83c0,.28.1.5.29.67.19.17.43.3.72.4.29.1.7.21,1.24.34.76.17,1.37.35,1.85.53.47.19.88.48,1.22.88.34.4.51.95.51,1.63,0,.85-.33,1.54-1,2.07s-1.56.79-2.69.79c-1.3,0-2.33-.29-3.11-.87-.78-.58-1.25-1.41-1.42-2.49h2.43c.06.49.28.88.65,1.16.37.28.86.42,1.46.42.43,0,.76-.1.99-.31s.34-.48.34-.82c0-.29-.1-.52-.3-.7-.2-.18-.44-.32-.74-.41-.29-.1-.71-.21-1.25-.34-.74-.17-1.35-.34-1.81-.51s-.86-.45-1.19-.84-.5-.91-.5-1.58c0-.86.33-1.57.99-2.11.66-.54,1.57-.81,2.74-.81s2.18.31,2.92.92Z"/>
        <path class="cls-2" d="m27.41,3.22c.67.41,1.2,1,1.58,1.77.38.77.57,1.68.57,2.73s-.19,1.95-.57,2.73c-.38.77-.9,1.37-1.58,1.77-.67.41-1.43.61-2.27.61s-1.56-.2-2.15-.6c-.59-.4-1.02-.94-1.27-1.61v6.84h-2.54V2.74h2.54v2.07c.25-.67.68-1.21,1.27-1.6.59-.4,1.31-.59,2.15-.59s1.6.2,2.27.61Zm-4.96,2.39c-.5.52-.75,1.23-.75,2.11s.25,1.58.75,2.1c.5.52,1.13.78,1.9.78s1.43-.25,1.91-.76c.48-.51.72-1.21.72-2.12s-.24-1.61-.72-2.12c-.48-.52-1.12-.77-1.91-.77s-1.4.26-1.9.78Z"/>
        <path class="cls-2" d="m37.42,3.2c.6.4,1.03.93,1.28,1.6v-2.07h2.52v9.97h-2.52v-2.09c-.25.67-.68,1.21-1.28,1.61-.6.4-1.32.6-2.16.6s-1.6-.2-2.27-.61c-.67-.41-1.2-1-1.58-1.77-.38-.77-.57-1.68-.57-2.73s.19-1.95.57-2.73c.38-.77.9-1.37,1.58-1.77.67-.41,1.43-.61,2.27-.61s1.56.2,2.16.59Zm-3.28,2.39c-.48.52-.72,1.22-.72,2.12s.24,1.61.72,2.12c.48.51,1.12.76,1.91.76s1.4-.26,1.9-.78c.5-.52.75-1.22.75-2.1s-.25-1.59-.75-2.11c-.5-.52-1.13-.78-1.9-.78s-1.43.26-1.91.77Z"/>
        <path class="cls-2" d="m49.88,3.53c.73.61,1.19,1.43,1.37,2.45h-2.38c-.1-.48-.31-.86-.65-1.15s-.77-.43-1.31-.43c-.43,0-.77.1-1.01.31s-.36.48-.36.83c0,.28.1.5.29.67s.43.3.72.4c.29.1.7.21,1.24.34.76.17,1.37.35,1.85.53.47.19.88.48,1.22.88.34.4.51.95.51,1.63,0,.85-.33,1.54-1,2.07s-1.56.79-2.69.79c-1.3,0-2.33-.29-3.12-.87-.78-.58-1.25-1.41-1.42-2.49h2.43c.06.49.28.88.65,1.16.37.28.86.42,1.46.42.43,0,.76-.1.99-.31s.34-.48.34-.82c0-.29-.1-.52-.3-.7-.2-.18-.45-.32-.74-.41-.29-.1-.71-.21-1.25-.34-.74-.17-1.35-.34-1.81-.51s-.86-.45-1.19-.84-.5-.91-.5-1.58c0-.86.33-1.57.99-2.11s1.57-.81,2.74-.81,2.18.31,2.92.92Z"/>
        <path class="cls-2" d="m54.97,2.74l2.72,6.77,2.52-6.77h2.79l-6.1,14.72h-2.81l2.25-5.04-4.19-9.68h2.83Z"/>
        <path class="cls-2" d="m71.41,3.22c.77.41,1.38,1,1.83,1.77.44.77.67,1.68.67,2.73s-.22,1.95-.67,2.72c-.44.77-1.05,1.36-1.83,1.77-.77.41-1.65.62-2.62.62s-1.85-.21-2.62-.62-1.38-1-1.83-1.77c-.44-.77-.67-1.67-.67-2.72s.22-1.95.67-2.73c.44-.77,1.05-1.37,1.83-1.77.77-.41,1.65-.61,2.62-.61s1.84.2,2.62.61Zm-4.42,2.33c-.49.5-.74,1.22-.74,2.17s.25,1.67.74,2.17c.49.5,1.09.75,1.8.75s1.31-.25,1.8-.75c.49-.5.74-1.22.74-2.17s-.25-1.67-.74-2.17c-.49-.5-1.09-.75-1.8-.75s-1.31.25-1.8.75Z"/>
      </g>
    </g>
  </g>
</svg>